<?xml version="1.0" encoding="UTF-8"?>
<svg width="270px" height="108px" viewBox="0 0 270 108" version="1.1" xmlns="http://www.w3.org/2000/svg" xmlns:xlink="http://www.w3.org/1999/xlink">
    <title>Black Duck Logo</title>
    <g id="root" stroke="none" stroke-width="1" fill="none" fill-rule="evenodd">
        <g id="Black-Duck-Logo" transform="translate(-665, -167)">
            <g id="group-1" transform="translate(662, 167.6865)">
                <g id="group-2" transform="translate(3.5801, 0)">
                    <g id="BLACK-DUCK" transform="translate(0, 75.09)" fill="#222222" fill-rule="nonzero" stroke="#222222" stroke-width="0.5">
                        <path d="M2.89685718,31.5534597 C2.03522786,31.5534597 1.337011,31.2860575 0.802206602,30.7512531 C0.267402201,30.2164487 0,29.5182318 0,28.6566025 L0,0.356536268 L13.1918419,0.356536268 C15.8361526,0.356536268 17.9679423,0.987902575 19.5872112,2.25063519 C21.2064801,3.51336781 22.0161145,5.18463156 22.0161145,7.26442646 L22.0161145,9.62647923 C22.0161145,10.7257994 21.763568,11.7731247 21.258475,12.7684551 C20.7533819,13.7637855 20.0551651,14.5585643 19.1638244,15.1527914 L19.1638244,15.1973584 C20.6196808,15.583606 21.7858515,16.3338178 22.6623365,17.4479936 C23.5388215,18.5621694 23.977064,19.8620412 23.977064,21.347609 L23.977064,23.4868266 C23.977064,25.9231578 23.2045688,27.8766794 21.6595783,29.3473915 C20.1145878,30.8181036 18.0199372,31.5534597 15.3756265,31.5534597 L2.89685718,31.5534597 Z M14.0831826,14.4397188 C15.4796163,14.4397188 16.60122,14.0014763 17.4479936,13.1249914 C18.2947672,12.2485064 18.7181541,11.0823357 18.7181541,9.62647923 L18.7181541,7.26442646 C18.7181541,6.07597223 18.2056332,5.11778101 17.1805914,4.3898528 C16.1555496,3.66192458 14.8259665,3.29796048 13.1918419,3.29796048 L3.29796048,3.29796048 L3.29796048,14.4397188 L14.0831826,14.4397188 Z M14.9299562,28.6120355 C16.7126376,28.6120355 18.1164991,28.1440816 19.1415409,27.2081739 C20.1665826,26.2722662 20.6791035,25.0318171 20.6791035,23.4868266 L20.6791035,21.347609 C20.6791035,20.0997321 20.2334332,19.0969738 19.3420925,18.3393343 C18.4507519,17.5816947 17.2771533,17.2028749 15.8212969,17.2028749 L3.29796048,17.2028749 L3.29796048,28.6120355 L14.9299562,28.6120355 Z" id="Shape"></path>
                        <path d="M32.6676355,31.5534597 C31.7465835,31.5534597 31.033511,31.3009132 30.5284179,30.7958201 C30.0233249,30.2907271 29.7707784,29.5776545 29.7707784,28.6566025 L29.7707784,0.356536268 L33.0687388,0.356536268 L33.0687388,28.6120355 L50.0042116,28.6120355 L50.0042116,31.5534597 L32.6676355,31.5534597 Z" id="Path"></path>
                        <path d="M72.6888316,22.9074552 L59.0067523,22.9074552 L55.7979259,31.5534597 L52.4108314,31.5534597 L64.3993634,0.356536268 L65.9146425,0.356536268 C66.8951173,0.356536268 67.6081898,0.950763381 68.0538601,2.13921761 L74.9171833,20.1442991 L74.9617503,20.1442991 L74.9617503,20.2334332 L79.2847526,31.5534597 L75.897658,31.5534597 L72.6888316,22.9074552 Z M60.0317941,20.1442991 L71.6637898,20.1442991 L65.8700755,4.63497148 L65.8255085,4.63497148 L60.0317941,20.1442991 Z" id="Shape"></path>
                        <path d="M92.3428934,31.909996 C90.3522326,31.909996 88.5918347,31.4346143 87.0616999,30.4838509 C85.5315651,29.5330875 84.3431109,28.2035043 83.4963372,26.4951014 C82.6495636,24.7866984 82.2261768,22.8183211 82.2261768,20.5899695 L82.2261768,11.3200265 C82.2261768,9.09167483 82.6495636,7.11586968 83.4963372,5.39261105 C84.3431109,3.66935242 85.5464208,2.33976926 87.1062669,1.40386155 C88.6661131,0.467953851 90.471078,0 92.5211615,0 L97.2452671,0 C99.1765052,0 100.87748,0.415958979 102.348192,1.24787694 C103.818904,2.0797949 104.962792,3.25339344 105.779854,4.76867258 C106.596916,6.28395172 107.005447,8.02206602 107.005447,9.9830155 L103.796621,9.9830155 C103.796621,7.87350925 103.194966,6.17253414 101.991656,4.88009016 C100.788346,3.58764619 99.2062165,2.94142421 97.2452671,2.94142421 L92.5211615,2.94142421 C90.4116553,2.94142421 88.718108,3.70649162 87.4405197,5.23662643 C86.1629314,6.76676125 85.5241373,8.79456127 85.5241373,11.3200265 L85.5241373,20.5899695 C85.5241373,23.1154347 86.1480757,25.1432347 87.3959527,26.6733695 C88.6438296,28.2035043 90.2928098,28.9685718 92.3428934,28.9685718 L97.156133,28.9685718 C99.1765052,28.9685718 100.803202,28.2554992 102.036223,26.8293541 C103.269244,25.4032091 103.885755,23.5313937 103.885755,21.2139079 L107.094581,21.2139079 C107.094581,23.3234142 106.678622,25.1878017 105.846705,26.8070706 C105.014787,28.4263395 103.848616,29.6816443 102.348192,30.572985 C100.847769,31.4643256 99.1170825,31.909996 97.156133,31.909996 L92.3428934,31.909996 Z" id="Path"></path>
                        <polygon id="Path" points="132.05212 31.5534597 120.019021 16.6235035 116.097122 20.7682376 116.097122 31.5534597 112.799162 31.5534597 112.799162 0.356536268 116.097122 0.356536268 116.097122 16.6680705 131.249914 0.356536268 135.350081 0.356536268 122.29194 14.2168837 136.152287 31.5534597"></polygon>
                        <path d="M156.756913,31.5534597 C155.835861,31.5534597 155.122788,31.3009132 154.617695,30.7958201 C154.112602,30.2907271 153.860056,29.5776545 153.860056,28.6566025 L153.860056,0.356536268 L166.784496,0.356536268 C168.983136,0.356536268 170.914374,0.779923086 172.57821,1.62669672 C174.242046,2.47347036 175.53449,3.67678026 176.455542,5.23662643 C177.376594,6.7964726 177.83712,8.58658178 177.83712,10.606954 L177.83712,20.4117013 C177.83712,24.0661981 176.916068,26.836782 175.073964,28.7234531 C173.23186,30.6101242 170.528126,31.5534597 166.962764,31.5534597 L156.756913,31.5534597 Z M166.87363,28.6120355 C169.399095,28.6120355 171.308049,27.9212465 172.600493,26.5396684 C173.892937,25.1580904 174.539159,23.1154347 174.539159,20.4117013 L174.539159,10.606954 C174.539159,8.438025 173.818659,6.67762718 172.377658,5.3257605 C170.936658,3.97389382 169.042559,3.29796048 166.695362,3.29796048 L157.158016,3.29796048 L157.158016,28.6120355 L166.87363,28.6120355 Z" id="Shape"></path>
                        <path d="M193.61385,31.909996 C191.712323,31.909996 190.033631,31.4866091 188.577775,30.6398355 C187.121919,29.7930619 185.992887,28.589752 185.19068,27.0299058 C184.388474,25.4700596 183.987371,23.6799504 183.987371,21.6595783 L183.987371,0.356536268 L187.285331,0.356536268 L187.285331,21.7487123 C187.285331,23.9176413 187.864702,25.6631834 189.023445,26.9853388 C190.182188,28.3074941 191.712323,28.9685718 193.61385,28.9685718 L198.427089,28.9685718 C200.328616,28.9685718 201.858751,28.3074941 203.017494,26.9853388 C204.176237,25.6631834 204.755608,23.9176413 204.755608,21.7487123 L204.755608,0.356536268 L208.053569,0.356536268 L208.053569,21.6595783 C208.053569,23.6799504 207.652465,25.4700596 206.850259,27.0299058 C206.048052,28.589752 204.919021,29.7930619 203.463164,30.6398355 C202.007308,31.4866091 200.328616,31.909996 198.427089,31.909996 L193.61385,31.909996 Z" id="Path"></path>
                        <path d="M224.498804,31.909996 C222.508143,31.909996 220.747745,31.4346143 219.21761,30.4838509 C217.687476,29.5330875 216.499021,28.2035043 215.652248,26.4951014 C214.805474,24.7866984 214.382087,22.8183211 214.382087,20.5899695 L214.382087,11.3200265 C214.382087,9.09167483 214.805474,7.11586968 215.652248,5.39261105 C216.499021,3.66935242 217.702331,2.33976926 219.262178,1.40386155 C220.822024,0.467953851 222.626989,0 224.677072,0 L229.401178,0 C231.332416,0 233.033391,0.415958979 234.504103,1.24787694 C235.974815,2.0797949 237.118702,3.25339344 237.935765,4.76867258 C238.752827,6.28395172 239.161358,8.02206602 239.161358,9.9830155 L235.952532,9.9830155 C235.952532,7.87350925 235.350877,6.17253414 234.147567,4.88009016 C232.944257,3.58764619 231.362127,2.94142421 229.401178,2.94142421 L224.677072,2.94142421 C222.567566,2.94142421 220.874019,3.70649162 219.59643,5.23662643 C218.318842,6.76676125 217.680048,8.79456127 217.680048,11.3200265 L217.680048,20.5899695 C217.680048,23.1154347 218.303986,25.1432347 219.551863,26.6733695 C220.79974,28.2035043 222.44872,28.9685718 224.498804,28.9685718 L229.312044,28.9685718 C231.332416,28.9685718 232.959112,28.2554992 234.192134,26.8293541 C235.425155,25.4032091 236.041666,23.5313937 236.041666,21.2139079 L239.250492,21.2139079 C239.250492,23.3234142 238.834533,25.1878017 238.002615,26.8070706 C237.170697,28.4263395 236.004526,29.6816443 234.504103,30.572985 C233.003679,31.4643256 231.272993,31.909996 229.312044,31.909996 L224.498804,31.909996 Z" id="Path"></path>
                        <polygon id="Path" points="264.208031 31.5534597 252.174932 16.6235035 248.253033 20.7682376 248.253033 31.5534597 244.955072 31.5534597 244.955072 0.356536268 248.253033 0.356536268 248.253033 16.6680705 263.405824 0.356536268 267.505991 0.356536268 254.44785 14.2168837 268.308198 31.5534597"></polygon>
                    </g>
                    <g id="Black-Duck" transform="translate(89.1516, -0)">
                        <g id="Group-5" fill="#222222">
                            <path d="M45.0021254,48.5005 L52.9470511,62.0229534 L37.0569329,62.0229534 L45.0021254,48.5005 Z M26.4636542,48.5005 L34.4085799,62.0229534 L18.5184617,62.0229534 L26.4636542,48.5005 Z M63.5105823,48.4346657 L71.455508,61.9571191 L55.5653898,61.9571191 L63.5105823,48.4346657 Z M43.6778155,47.7263062 L35.7328898,61.2487596 L27.7876973,47.7263062 L43.6778155,47.7263062 Z M62.2162868,47.7263062 L54.2713611,61.2487596 L46.3261685,47.7263062 L62.2162868,47.7263062 Z M80.7447532,47.7263062 L72.7998275,61.2487596 L64.854635,47.7263062 L80.7447532,47.7263062 Z M25.1393443,47.7263062 L17.1944186,61.2487596 L9.24922605,47.7263062 L25.1393443,47.7263062 Z M63.5105823,16.7319754 L71.455508,30.2544288 L55.5653898,30.2544288 L63.5105823,16.7319754 Z M62.2162868,16.0236159 L54.2713611,29.5460693 L46.3261685,16.0236159 L62.2162868,16.0236159 Z M80.7447532,16.0236159 L72.7998275,29.5460693 L64.854635,16.0236159 L80.7447532,16.0236159 Z M54.2713611,32.5917313 L62.2162868,46.1141847 L46.3261685,46.1141847 L54.2713611,32.5917313 Z M72.7998275,32.5917313 L80.7447532,46.1141847 L64.854635,46.1141847 L72.7998275,32.5917313 Z M35.7328898,32.5917313 L43.6778155,46.1141847 L27.7876973,46.1141847 L35.7328898,32.5917313 Z M17.1944186,32.5917313 L25.1393443,46.1141847 L9.24922605,46.1141847 L17.1944186,32.5917313 Z M52.9470511,31.8175374 L45.0021254,45.3399909 L37.0569329,31.8175374 L52.9470511,31.8175374 Z M15.8901182,31.8175374 L7.94519251,45.3399909 L7.63833441e-14,31.8175374 L15.8901182,31.8175374 Z M34.4085799,31.8175374 L26.4636542,45.3399909 L18.5184617,31.8175374 L34.4085799,31.8175374 Z M71.455508,31.7026903 L63.5105823,45.2251437 L55.5653898,31.7026903 L71.455508,31.7026903 Z M54.2713611,0.889041002 L62.2162868,14.4114944 L46.3261685,14.4114944 L54.2713611,0.889041002 Z M72.7998275,0.889041002 L80.7447532,14.4114944 L64.854635,14.4114944 L72.7998275,0.889041002 Z M71.455508,7.81597009e-14 L63.5105823,13.5224534 L55.5653898,7.81597009e-14 L71.455508,7.81597009e-14 Z" id="duck-body"></path>
                        </g>
                        <path d="M82.5052147,0.172270729 L90.4501404,13.6947241 L74.5600222,13.6947241 L82.5052147,0.172270729 Z" id="duck-beak" fill="#EE9B36" transform="translate(82.5051, 6.9335) scale(1, -1) translate(-82.5051, -6.9335)"></path>
                    </g>
                </g>
            </g>
        </g>
    </g>
</svg>